HIERARCHY
ROOT Hips
{
 OFFSET 0.000000 0.000000 0.000000
 CHANNELS 6 Xposition Yposition Zposition Yrotation Xrotation Zrotation
 JOINT Chest
 {
  OFFSET 0.000000 10.354800 0.006500
  CHANNELS 3 Yrotation Xrotation Zrotation
  JOINT Chest2
  {
   OFFSET 0.000000 10.435800 -0.013200
   CHANNELS 3 Yrotation Xrotation Zrotation
   JOINT Chest3
   {
    OFFSET 0.000000 10.393700 0.000000
    CHANNELS 3 Yrotation Xrotation Zrotation
    JOINT Chest4
    {
     OFFSET 0.000000 10.383100 0.000000
     CHANNELS 3 Yrotation Xrotation Zrotation
     JOINT Neck
     {
      OFFSET 0.000000 15.694000 0.000000
      CHANNELS 3 Yrotation Xrotation Zrotation
      JOINT Head
      {
       OFFSET 0.000000 9.711000 -0.028000
       CHANNELS 3 Yrotation Xrotation Zrotation
       End Site
       {
        OFFSET 0.000000 18.578700 -0.014800
       }
      }
     }
     JOINT RightCollar
     {
      OFFSET -3.157200 10.367500 0.000000
      CHANNELS 3 Yrotation Xrotation Zrotation
      JOINT RightShoulder
      {
       OFFSET -14.482500 0.000000 0.000000
       CHANNELS 3 Yrotation Xrotation Zrotation
       JOINT RightElbow
       {
        OFFSET 0.000000 -31.707800 0.000000
        CHANNELS 3 Yrotation Xrotation Zrotation
        JOINT RightWrist
        {
         OFFSET 0.000000 -25.659300 0.000000
         CHANNELS 3 Yrotation Xrotation Zrotation
         End Site
         {
          OFFSET 0.000000 -18.994300 0.000000
         }
        }
       }
      }
     }
     JOINT LeftCollar
     {
      OFFSET 3.157200 10.367500 0.000000
      CHANNELS 3 Yrotation Xrotation Zrotation
      JOINT LeftShoulder
      {
       OFFSET 14.482500 0.000000 0.000000
       CHANNELS 3 Yrotation Xrotation Zrotation
       JOINT LeftElbow
       {
        OFFSET 0.000000 -31.707800 0.000000
        CHANNELS 3 Yrotation Xrotation Zrotation
        JOINT LeftWrist
        {
         OFFSET 0.000000 -25.659300 0.000000
         CHANNELS 3 Yrotation Xrotation Zrotation
         End Site
         {
          OFFSET 0.000000 -18.994300 0.000000
         }
        }
       }
      }
     }
    }
   }
  }
 }
 JOINT RightHip
 {
  OFFSET -8.365600 -0.032100 -0.003200
  CHANNELS 3 Yrotation Xrotation Zrotation
  JOINT RightKnee
  {
   OFFSET 0.000000 -43.980000 0.003100
   CHANNELS 3 Yrotation Xrotation Zrotation
   JOINT RightAnkle
   {
    OFFSET 0.000000 -42.882800 0.005200
    CHANNELS 3 Yrotation Xrotation Zrotation
    JOINT RightToe
    {
     OFFSET 0.000000 -4.915500 10.826300
     CHANNELS 3 Yrotation Xrotation Zrotation
     End Site
     {
      OFFSET 0.000000 -1.517500 6.175900
     }
    }
   }
  }
 }
 JOINT LeftHip
 {
  OFFSET 8.365600 -0.032100 -0.003200
  CHANNELS 3 Yrotation Xrotation Zrotation
  JOINT LeftKnee
  {
   OFFSET 0.000000 -43.980000 0.003100
   CHANNELS 3 Yrotation Xrotation Zrotation
   JOINT LeftAnkle
   {
    OFFSET 0.000000 -42.882800 0.005200
    CHANNELS 3 Yrotation Xrotation Zrotation
    JOINT LeftToe
    {
     OFFSET 0.000000 -4.915500 10.826300
     CHANNELS 3 Yrotation Xrotation Zrotation
     End Site
     {
      OFFSET 0.000000 -1.517500 6.175900
     }
    }
   }
  }
 }
}
MOTION
Frames: 5
Frame Time: 0.008333
-1.072794 126.488007 39.269409 171.774844 -19.943641 -3.084212 0.158544 13.039017 3.729065 -0.021208 1.069264 0.300146 -0.031435 1.818764 0.509894 0.086047 11.790458 3.329090 -0.084568 20.000020 -3.538733 0.709521 -4.461260 -3.755401 3.790878 6.438008 -3.512452 -0.259368 -8.088355 -2.765059 -94.062862 -54.687237 120.478886 -25.079423 -23.540924 -35.353284 -2.646767 8.738647 -0.411058 12.231628 -6.033772 -7.774672 113.522128 -67.368381 -137.532971 24.265724 -4.336588 41.373930 6.850107 -61.495791 -2.356614 -100.845882 77.784798 -94.112740 5.542842 2.446202 -17.699173 0.052383 -0.033006 0.023772 -16.426282 -62.256037 2.203122 116.591713 83.163009 111.024533 -6.464358 -23.201446 -0.032138 -0.007365 0.007329 -0.003344
-1.075331 126.487998 39.267527 171.780824 -19.945397 -3.067302 0.148902 13.041849 3.709808 -0.023452 1.076359 0.300024 -0.031073 1.817774 0.509304 0.088389 11.785212 3.329535 -0.090492 20.005182 -3.536652 0.703736 -4.456217 -3.752987 3.799167 6.427958 -3.530335 -0.271160 -8.079145 -2.750288 -94.045117 -54.687592 120.477527 -25.083535 -23.558007 -35.357746 -2.649446 8.736401 -0.409279 12.230868 -6.036230 -7.769300 113.483884 -67.350745 -137.501272 24.269671 -4.335431 41.371893 6.877742 -61.493137 -2.394153 -100.839620 77.782902 -94.101811 5.510867 2.439876 -17.681595 0.024392 -0.016488 0.011072 -16.398908 -62.255665 2.164719 116.593091 83.173062 111.020364 -6.470745 -23.196022 -0.023169 -0.004878 0.003096 -0.002215
-1.077137 126.487721 39.266658 171.776874 -19.942155 -3.051553 0.145681 13.043989 3.694188 -0.021351 1.075650 0.298983 -0.030742 1.817465 0.508951 0.091003 11.782090 3.327994 -0.100387 20.018055 -3.534020 0.702848 -4.459078 -3.751019 3.805195 6.420979 -3.540335 -0.281291 -8.072062 -2.748697 -94.021260 -54.676562 120.472231 -25.097584 -23.590225 -35.370399 -2.651561 8.734458 -0.403068 12.238847 -6.036804 -7.761508 113.411141 -67.317253 -137.441377 24.265812 -4.325933 41.361232 6.900906 -61.493131 -2.418372 -100.816494 77.786657 -94.061632 5.259001 2.437952 -17.646429 0.006504 -0.005276 0.002953 -16.372825 -62.259507 2.137683 116.567914 83.175740 110.990662 -6.457256 -23.189811 -0.016906 -0.002011 0.002142 -0.000913
-1.076874 126.487556 39.266087 171.775223 -19.939005 -3.047993 0.144996 13.046581 3.690253 -0.019878 1.072474 0.298077 -0.030558 1.817275 0.508714 0.090447 11.785783 3.326934 -0.100410 20.016972 -3.531662 0.702920 -4.461228 -3.751049 3.813992 6.410587 -3.550986 -0.286994 -8.063265 -2.750323 -94.004105 -54.663075 120.470807 -25.112405 -23.617667 -35.379817 -2.653779 8.728491 -0.393716 12.246105 -6.033946 -7.766272 113.401823 -67.311585 -137.436288 24.284540 -4.314097 41.351301 6.897306 -61.497073 -2.416799 -100.813826 77.788185 -94.051632 5.132423 2.438099 -17.631647 0.002165 -0.003127 0.000983 -16.369053 -62.261096 2.136728 116.598450 83.188372 111.014472 -6.426378 -23.185581 -0.013533 0.000346 0.001667 0.000157
-1.075773 126.486947 39.267096 171.767364 -19.928010 -3.048124 0.152848 13.037521 3.690853 -0.019994 1.070677 0.299790 -0.030485 1.817181 0.508642 0.091712 11.786576 3.323484 -0.100463 20.017038 -3.526893 0.698655 -4.452090 -3.744779 3.818095 6.404424 -3.559178 -0.293696 -8.048715 -2.760218 -93.996731 -54.644761 120.482120 -25.149955 -23.645955 -35.382765 -2.660514 8.727710 -0.382860 12.262093 -6.027641 -7.768243 113.347463 -67.289774 -137.402413 24.289536 -4.312248 41.344820 6.887101 -61.507218 -2.407850 -100.793620 77.794324 -94.028306 5.088126 2.441258 -17.631710 0.004833 -0.002815 0.002194 -16.372218 -62.268719 2.154081 116.557867 83.195306 110.972456 -6.443968 -23.178435 -0.006662 -0.000413 0.001502 -0.000188
